<svg xmlns="http://www.w3.org/2000/svg" xmlns:xlink="http://www.w3.org/1999/xlink" width="500" zoomAndPan="magnify" viewBox="0 0 375 374.999991" height="500" preserveAspectRatio="xMidYMid meet" version="1.0"><defs><g/></defs><rect x="-37.5" width="450" fill="#ffffff" y="-37.499999" height="449.999989" fill-opacity="1"/><rect x="-37.5" width="450" fill="#ffffff" y="-37.499999" height="449.999989" fill-opacity="1"/><rect x="-37.5" width="450" fill="#ffffff" y="-37.499999" height="449.999989" fill-opacity="1"/><g fill="#000000" fill-opacity="1"><g transform="translate(32.084557, 204.441937)"><g><path d="M 17.53125 0.703125 C 15.414062 0.703125 13.648438 -0.00390625 12.234375 -1.421875 C 11.628906 -2.054688 11.101562 -2.765625 10.65625 -3.546875 C 10.4375 -2.859375 10.0625 -2.226562 9.53125 -1.65625 C 8.320312 -0.394531 6.566406 0.234375 4.265625 0.234375 L 3.796875 0.234375 L 3.796875 -31.75 L 0.953125 -32.46875 L 0.953125 -33.171875 L 7.109375 -33.171875 C 9.953125 -33.171875 11.375 -31.75 11.375 -28.90625 L 11.375 -22.515625 C 11.875 -22.921875 12.363281 -23.234375 12.84375 -23.453125 C 13.976562 -24.085938 15.304688 -24.40625 16.828125 -24.40625 C 20.015625 -24.40625 22.546875 -23.320312 24.421875 -21.15625 C 26.304688 -18.988281 27.25 -15.882812 27.25 -11.84375 C 27.25 -9.15625 26.820312 -6.875 25.96875 -5 C 25.113281 -3.125 23.957031 -1.703125 22.5 -0.734375 C 21.050781 0.222656 19.394531 0.703125 17.53125 0.703125 Z M 15.640625 -0.953125 C 16.648438 -0.953125 17.492188 -1.75 18.171875 -3.34375 C 18.847656 -4.9375 19.1875 -7.769531 19.1875 -11.84375 C 19.1875 -16.113281 18.816406 -19.035156 18.078125 -20.609375 C 17.335938 -22.191406 16.285156 -22.984375 14.921875 -22.984375 C 14.109375 -22.984375 13.273438 -22.664062 12.421875 -22.03125 C 12.160156 -21.84375 11.8125 -21.53125 11.375 -21.09375 L 11.375 -4.734375 C 11.65625 -4.015625 12.003906 -3.382812 12.421875 -2.84375 C 13.367188 -1.582031 14.441406 -0.953125 15.640625 -0.953125 Z M 15.640625 -0.953125 "/></g></g></g><g fill="#000000" fill-opacity="1"><g transform="translate(61.224065, 204.441937)"><g><path d="M 7.109375 10.1875 C 5.679688 10.1875 4.570312 9.804688 3.78125 9.046875 C 3 8.296875 2.609375 7.253906 2.609375 5.921875 C 2.609375 4.722656 2.929688 3.789062 3.578125 3.125 C 4.222656 2.457031 5.082031 2.125 6.15625 2.125 C 6.414062 2.125 6.671875 2.148438 6.921875 2.203125 C 7.171875 2.253906 7.34375 2.28125 7.4375 2.28125 L 8.0625 2.375 L 8.0625 8.765625 C 8.976562 8.609375 9.78125 8.101562 10.46875 7.25 C 11.164062 6.394531 11.941406 4.925781 12.796875 2.84375 L 13.75 0.46875 L 1.421875 -22.28125 L -0.953125 -22.984375 L -0.953125 -23.703125 L 4.96875 -23.703125 C 6.613281 -23.703125 7.914062 -23.359375 8.875 -22.671875 C 9.84375 -21.992188 10.675781 -20.992188 11.375 -19.671875 L 17.296875 -8.71875 L 22.28125 -21.5625 L 18.71875 -22.984375 L 18.71875 -23.703125 L 27.484375 -23.703125 L 27.484375 -22.984375 L 23.703125 -21.5625 L 14.21875 2.84375 C 13.207031 5.4375 12.128906 7.304688 10.984375 8.453125 C 9.847656 9.609375 8.554688 10.1875 7.109375 10.1875 Z M 7.109375 10.1875 "/></g></g></g><g fill="#000000" fill-opacity="1"><g transform="translate(87.757605, 204.441937)"><g><path d="M 14.21875 0.703125 C 12.132812 0.703125 10.328125 0.328125 8.796875 -0.421875 C 7.265625 -1.179688 6.085938 -2.222656 5.265625 -3.546875 C 4.441406 -4.878906 4.03125 -6.382812 4.03125 -8.0625 L 4.03125 -22.515625 L 0.703125 -22.515625 L 0.703125 -23.703125 L 4.03125 -23.703125 L 4.03125 -26.0625 C 4.03125 -28.90625 5.453125 -30.328125 8.296875 -30.328125 L 11.609375 -30.328125 L 11.609375 -23.703125 L 18.25 -23.703125 L 18.25 -22.515625 L 11.609375 -22.515625 L 11.609375 -8.0625 C 11.609375 -5.15625 11.90625 -3.160156 12.5 -2.078125 C 13.101562 -1.003906 13.992188 -0.46875 15.171875 -0.46875 C 16.304688 -0.46875 17.300781 -1.019531 18.15625 -2.125 C 19.007812 -3.238281 19.4375 -4.742188 19.4375 -6.640625 L 20.609375 -6.640625 C 20.609375 -4.296875 20.023438 -2.484375 18.859375 -1.203125 C 17.691406 0.0664062 16.144531 0.703125 14.21875 0.703125 Z M 14.21875 0.703125 "/></g></g></g><g fill="#000000" fill-opacity="1"><g transform="translate(109.079199, 204.441937)"><g><path d="M 14.6875 0.703125 C 10.644531 0.703125 7.5 -0.40625 5.25 -2.625 C 3.007812 -4.851562 1.890625 -7.925781 1.890625 -11.84375 C 1.890625 -14.40625 2.378906 -16.632812 3.359375 -18.53125 C 4.335938 -20.425781 5.703125 -21.878906 7.453125 -22.890625 C 9.210938 -23.898438 11.226562 -24.40625 13.5 -24.40625 C 15.78125 -24.40625 17.78125 -23.976562 19.5 -23.125 C 21.21875 -22.269531 22.539062 -21.125 23.46875 -19.6875 C 24.40625 -18.25 24.875 -16.660156 24.875 -14.921875 C 24.875 -14.140625 24.796875 -13.460938 24.640625 -12.890625 L 24.40625 -12.078125 C 23.050781 -11.796875 21.582031 -11.5625 20 -11.375 C 16.675781 -10.894531 13.328125 -10.65625 9.953125 -10.65625 C 9.953125 -7 10.457031 -4.382812 11.46875 -2.8125 C 12.476562 -1.25 13.867188 -0.46875 15.640625 -0.46875 C 16.867188 -0.46875 18.007812 -0.757812 19.0625 -1.34375 C 20.125 -1.9375 20.960938 -2.710938 21.578125 -3.671875 C 22.203125 -4.640625 22.515625 -5.628906 22.515625 -6.640625 L 23.703125 -6.640625 C 23.703125 -5.367188 23.320312 -4.164062 22.5625 -3.03125 C 21.800781 -1.894531 20.738281 -0.988281 19.375 -0.3125 C 18.019531 0.363281 16.457031 0.703125 14.6875 0.703125 Z M 9.953125 -11.84375 C 11.972656 -11.84375 13.613281 -11.921875 14.875 -12.078125 C 15.414062 -12.109375 15.988281 -12.191406 16.59375 -12.328125 C 16.625 -12.484375 16.703125 -12.828125 16.828125 -13.359375 C 16.984375 -14.148438 17.0625 -14.988281 17.0625 -15.875 C 17.0625 -18.5 16.710938 -20.414062 16.015625 -21.625 C 15.316406 -22.84375 14.476562 -23.453125 13.5 -23.453125 C 11.132812 -23.453125 9.953125 -19.582031 9.953125 -11.84375 Z M 9.953125 -11.84375 "/></g></g></g><g fill="#000000" fill-opacity="1"><g transform="translate(135.612739, 204.441937)"><g><path d="M 13.03125 0.703125 C 11.070312 0.703125 9.316406 0.28125 7.765625 -0.5625 C 7.015625 -0.976562 6.398438 -1.421875 5.921875 -1.890625 C 5.421875 -1.203125 4.867188 -0.664062 4.265625 -0.28125 C 3.984375 -0.09375 3.664062 0.078125 3.3125 0.234375 L 2.125 0.234375 L 2.125 -7.8125 L 4.03125 -7.8125 C 4.4375 -6.488281 5.035156 -5.257812 5.828125 -4.125 C 7.503906 -1.6875 9.585938 -0.46875 12.078125 -0.46875 C 13.410156 -0.46875 14.414062 -0.789062 15.09375 -1.4375 C 15.769531 -2.09375 16.109375 -3.035156 16.109375 -4.265625 C 16.109375 -5.304688 15.640625 -6.179688 14.703125 -6.890625 C 13.773438 -7.609375 12.316406 -8.488281 10.328125 -9.53125 C 8.617188 -10.382812 7.234375 -11.148438 6.171875 -11.828125 C 5.117188 -12.503906 4.222656 -13.351562 3.484375 -14.375 C 2.742188 -15.40625 2.375 -16.617188 2.375 -18.015625 C 2.375 -19.910156 3.1875 -21.445312 4.8125 -22.625 C 6.4375 -23.8125 8.941406 -24.40625 12.328125 -24.40625 C 13.992188 -24.40625 15.539062 -23.960938 16.96875 -23.078125 C 17.664062 -22.671875 18.265625 -22.242188 18.765625 -21.796875 C 19.171875 -22.367188 19.722656 -22.90625 20.421875 -23.40625 C 20.960938 -23.726562 21.28125 -23.90625 21.375 -23.9375 L 22.5625 -23.9375 L 22.5625 -15.875 L 20.65625 -15.875 C 20.1875 -17.226562 19.601562 -18.445312 18.90625 -19.53125 C 17.332031 -21.988281 15.453125 -23.21875 13.265625 -23.21875 C 12.410156 -23.21875 11.679688 -22.898438 11.078125 -22.265625 C 10.484375 -21.640625 10.1875 -20.851562 10.1875 -19.90625 C 10.1875 -18.707031 10.691406 -17.703125 11.703125 -16.890625 C 12.710938 -16.085938 14.242188 -15.164062 16.296875 -14.125 C 17.972656 -13.269531 19.304688 -12.519531 20.296875 -11.875 C 21.296875 -11.226562 22.148438 -10.429688 22.859375 -9.484375 C 23.578125 -8.535156 23.9375 -7.425781 23.9375 -6.15625 C 23.9375 -1.582031 20.300781 0.703125 13.03125 0.703125 Z M 13.03125 0.703125 "/></g></g></g><g fill="#000000" fill-opacity="1"><g transform="translate(161.198654, 204.441937)"><g><path d="M 14.6875 0.703125 C 10.644531 0.703125 7.5 -0.40625 5.25 -2.625 C 3.007812 -4.851562 1.890625 -7.925781 1.890625 -11.84375 C 1.890625 -14.40625 2.378906 -16.632812 3.359375 -18.53125 C 4.335938 -20.425781 5.703125 -21.878906 7.453125 -22.890625 C 9.210938 -23.898438 11.226562 -24.40625 13.5 -24.40625 C 15.78125 -24.40625 17.78125 -23.976562 19.5 -23.125 C 21.21875 -22.269531 22.539062 -21.125 23.46875 -19.6875 C 24.40625 -18.25 24.875 -16.660156 24.875 -14.921875 C 24.875 -14.140625 24.796875 -13.460938 24.640625 -12.890625 L 24.40625 -12.078125 C 23.050781 -11.796875 21.582031 -11.5625 20 -11.375 C 16.675781 -10.894531 13.328125 -10.65625 9.953125 -10.65625 C 9.953125 -7 10.457031 -4.382812 11.46875 -2.8125 C 12.476562 -1.25 13.867188 -0.46875 15.640625 -0.46875 C 16.867188 -0.46875 18.007812 -0.757812 19.0625 -1.34375 C 20.125 -1.9375 20.960938 -2.710938 21.578125 -3.671875 C 22.203125 -4.640625 22.515625 -5.628906 22.515625 -6.640625 L 23.703125 -6.640625 C 23.703125 -5.367188 23.320312 -4.164062 22.5625 -3.03125 C 21.800781 -1.894531 20.738281 -0.988281 19.375 -0.3125 C 18.019531 0.363281 16.457031 0.703125 14.6875 0.703125 Z M 9.953125 -11.84375 C 11.972656 -11.84375 13.613281 -11.921875 14.875 -12.078125 C 15.414062 -12.109375 15.988281 -12.191406 16.59375 -12.328125 C 16.625 -12.484375 16.703125 -12.828125 16.828125 -13.359375 C 16.984375 -14.148438 17.0625 -14.988281 17.0625 -15.875 C 17.0625 -18.5 16.710938 -20.414062 16.015625 -21.625 C 15.316406 -22.84375 14.476562 -23.453125 13.5 -23.453125 C 11.132812 -23.453125 9.953125 -19.582031 9.953125 -11.84375 Z M 9.953125 -11.84375 "/></g></g></g><g fill="#000000" fill-opacity="1"><g transform="translate(187.732194, 204.441937)"><g><path d="M 1.890625 -0.703125 L 4.734375 -1.421875 L 4.734375 -22.28125 L 1.890625 -22.984375 L 1.890625 -23.703125 L 6.15625 -23.703125 C 8.019531 -23.703125 9.488281 -23.097656 10.5625 -21.890625 C 10.976562 -21.421875 11.328125 -20.835938 11.609375 -20.140625 C 12.085938 -20.835938 12.671875 -21.46875 13.359375 -22.03125 C 14.941406 -23.300781 16.710938 -23.9375 18.671875 -23.9375 C 20.347656 -23.9375 21.601562 -23.546875 22.4375 -22.765625 C 23.28125 -21.992188 23.703125 -20.882812 23.703125 -19.4375 C 23.703125 -18.351562 23.375 -17.488281 22.71875 -16.84375 C 22.070312 -16.195312 21.210938 -15.875 20.140625 -15.875 C 19.703125 -15.875 19.257812 -15.90625 18.8125 -15.96875 L 18.25 -16.109375 L 18.25 -22.75 C 16.632812 -22.75 15.164062 -22.117188 13.84375 -20.859375 C 13.207031 -20.222656 12.703125 -19.585938 12.328125 -18.953125 L 12.328125 -1.421875 L 15.171875 -0.703125 L 15.171875 0 L 1.890625 0 Z M 1.890625 -0.703125 "/></g></g></g><g fill="#000000" fill-opacity="1"><g transform="translate(211.659755, 204.441937)"><g><path d="M 1.421875 -22.28125 L -0.953125 -22.984375 L -0.953125 -23.703125 L 4.96875 -23.703125 C 6.613281 -23.703125 7.914062 -23.359375 8.875 -22.671875 C 9.84375 -21.992188 10.675781 -20.992188 11.375 -19.671875 L 17.015625 -8.71875 L 22.28125 -21.5625 L 18.71875 -22.984375 L 18.71875 -23.703125 L 27.484375 -23.703125 L 27.484375 -22.984375 L 23.703125 -21.5625 L 14.6875 0.46875 L 13.265625 0.46875 Z M 1.421875 -22.28125 "/></g></g></g><g fill="#000000" fill-opacity="1"><g transform="translate(238.193295, 204.441937)"><g><path d="M 1.890625 -0.703125 L 4.734375 -1.421875 L 4.734375 -22.28125 L 1.890625 -22.984375 L 1.890625 -23.703125 L 8.0625 -23.703125 C 10.90625 -23.703125 12.328125 -22.28125 12.328125 -19.4375 L 12.328125 -1.421875 L 15.171875 -0.703125 L 15.171875 0 L 1.890625 0 Z M 8.0625 -26.53125 C 7.113281 -26.53125 6.320312 -26.847656 5.6875 -27.484375 C 5.0625 -28.117188 4.75 -28.910156 4.75 -29.859375 C 4.75 -30.804688 5.0625 -31.59375 5.6875 -32.21875 C 6.320312 -32.851562 7.113281 -33.171875 8.0625 -33.171875 C 9.007812 -33.171875 9.796875 -32.851562 10.421875 -32.21875 C 11.054688 -31.59375 11.375 -30.804688 11.375 -29.859375 C 11.375 -28.910156 11.054688 -28.117188 10.421875 -27.484375 C 9.796875 -26.847656 9.007812 -26.53125 8.0625 -26.53125 Z M 8.0625 -26.53125 "/></g></g></g><g fill="#000000" fill-opacity="1"><g transform="translate(254.302929, 204.441937)"><g><path d="M 14.6875 0.703125 C 10.644531 0.703125 7.5 -0.40625 5.25 -2.625 C 3.007812 -4.851562 1.890625 -7.925781 1.890625 -11.84375 C 1.890625 -15.757812 3.007812 -18.832031 5.25 -21.0625 C 7.5 -23.289062 10.644531 -24.40625 14.6875 -24.40625 C 17.59375 -24.40625 19.78125 -23.898438 21.25 -22.890625 C 22.71875 -21.878906 23.453125 -20.644531 23.453125 -19.1875 C 23.453125 -18.113281 23.128906 -17.253906 22.484375 -16.609375 C 21.835938 -15.960938 20.976562 -15.640625 19.90625 -15.640625 C 19.457031 -15.640625 19.015625 -15.671875 18.578125 -15.734375 L 18.015625 -15.875 L 18.015625 -22.984375 L 17.34375 -23.21875 C 16.875 -23.375 16.304688 -23.453125 15.640625 -23.453125 C 13.835938 -23.453125 12.4375 -22.597656 11.4375 -20.890625 C 10.445312 -19.191406 9.953125 -16.175781 9.953125 -11.84375 C 9.953125 -7.644531 10.445312 -4.695312 11.4375 -3 C 12.4375 -1.3125 13.835938 -0.46875 15.640625 -0.46875 C 16.867188 -0.46875 18.007812 -0.757812 19.0625 -1.34375 C 20.125 -1.9375 20.960938 -2.710938 21.578125 -3.671875 C 22.203125 -4.640625 22.515625 -5.628906 22.515625 -6.640625 L 23.703125 -6.640625 C 23.703125 -5.367188 23.320312 -4.164062 22.5625 -3.03125 C 21.800781 -1.894531 20.738281 -0.988281 19.375 -0.3125 C 18.019531 0.363281 16.457031 0.703125 14.6875 0.703125 Z M 14.6875 0.703125 "/></g></g></g><g fill="#000000" fill-opacity="1"><g transform="translate(279.415037, 204.441937)"><g><path d="M 14.6875 0.703125 C 10.644531 0.703125 7.5 -0.40625 5.25 -2.625 C 3.007812 -4.851562 1.890625 -7.925781 1.890625 -11.84375 C 1.890625 -14.40625 2.378906 -16.632812 3.359375 -18.53125 C 4.335938 -20.425781 5.703125 -21.878906 7.453125 -22.890625 C 9.210938 -23.898438 11.226562 -24.40625 13.5 -24.40625 C 15.78125 -24.40625 17.78125 -23.976562 19.5 -23.125 C 21.21875 -22.269531 22.539062 -21.125 23.46875 -19.6875 C 24.40625 -18.25 24.875 -16.660156 24.875 -14.921875 C 24.875 -14.140625 24.796875 -13.460938 24.640625 -12.890625 L 24.40625 -12.078125 C 23.050781 -11.796875 21.582031 -11.5625 20 -11.375 C 16.675781 -10.894531 13.328125 -10.65625 9.953125 -10.65625 C 9.953125 -7 10.457031 -4.382812 11.46875 -2.8125 C 12.476562 -1.25 13.867188 -0.46875 15.640625 -0.46875 C 16.867188 -0.46875 18.007812 -0.757812 19.0625 -1.34375 C 20.125 -1.9375 20.960938 -2.710938 21.578125 -3.671875 C 22.203125 -4.640625 22.515625 -5.628906 22.515625 -6.640625 L 23.703125 -6.640625 C 23.703125 -5.367188 23.320312 -4.164062 22.5625 -3.03125 C 21.800781 -1.894531 20.738281 -0.988281 19.375 -0.3125 C 18.019531 0.363281 16.457031 0.703125 14.6875 0.703125 Z M 9.953125 -11.84375 C 11.972656 -11.84375 13.613281 -11.921875 14.875 -12.078125 C 15.414062 -12.109375 15.988281 -12.191406 16.59375 -12.328125 C 16.625 -12.484375 16.703125 -12.828125 16.828125 -13.359375 C 16.984375 -14.148438 17.0625 -14.988281 17.0625 -15.875 C 17.0625 -18.5 16.710938 -20.414062 16.015625 -21.625 C 15.316406 -22.84375 14.476562 -23.453125 13.5 -23.453125 C 11.132812 -23.453125 9.953125 -19.582031 9.953125 -11.84375 Z M 9.953125 -11.84375 "/></g></g></g><g fill="#000000" fill-opacity="1"><g transform="translate(305.948577, 204.441937)"><g><path d="M 13.03125 0.703125 C 11.070312 0.703125 9.316406 0.28125 7.765625 -0.5625 C 7.015625 -0.976562 6.398438 -1.421875 5.921875 -1.890625 C 5.421875 -1.203125 4.867188 -0.664062 4.265625 -0.28125 C 3.984375 -0.09375 3.664062 0.078125 3.3125 0.234375 L 2.125 0.234375 L 2.125 -7.8125 L 4.03125 -7.8125 C 4.4375 -6.488281 5.035156 -5.257812 5.828125 -4.125 C 7.503906 -1.6875 9.585938 -0.46875 12.078125 -0.46875 C 13.410156 -0.46875 14.414062 -0.789062 15.09375 -1.4375 C 15.769531 -2.09375 16.109375 -3.035156 16.109375 -4.265625 C 16.109375 -5.304688 15.640625 -6.179688 14.703125 -6.890625 C 13.773438 -7.609375 12.316406 -8.488281 10.328125 -9.53125 C 8.617188 -10.382812 7.234375 -11.148438 6.171875 -11.828125 C 5.117188 -12.503906 4.222656 -13.351562 3.484375 -14.375 C 2.742188 -15.40625 2.375 -16.617188 2.375 -18.015625 C 2.375 -19.910156 3.1875 -21.445312 4.8125 -22.625 C 6.4375 -23.8125 8.941406 -24.40625 12.328125 -24.40625 C 13.992188 -24.40625 15.539062 -23.960938 16.96875 -23.078125 C 17.664062 -22.671875 18.265625 -22.242188 18.765625 -21.796875 C 19.171875 -22.367188 19.722656 -22.90625 20.421875 -23.40625 C 20.960938 -23.726562 21.28125 -23.90625 21.375 -23.9375 L 22.5625 -23.9375 L 22.5625 -15.875 L 20.65625 -15.875 C 20.1875 -17.226562 19.601562 -18.445312 18.90625 -19.53125 C 17.332031 -21.988281 15.453125 -23.21875 13.265625 -23.21875 C 12.410156 -23.21875 11.679688 -22.898438 11.078125 -22.265625 C 10.484375 -21.640625 10.1875 -20.851562 10.1875 -19.90625 C 10.1875 -18.707031 10.691406 -17.703125 11.703125 -16.890625 C 12.710938 -16.085938 14.242188 -15.164062 16.296875 -14.125 C 17.972656 -13.269531 19.304688 -12.519531 20.296875 -11.875 C 21.296875 -11.226562 22.148438 -10.429688 22.859375 -9.484375 C 23.578125 -8.535156 23.9375 -7.425781 23.9375 -6.15625 C 23.9375 -1.582031 20.300781 0.703125 13.03125 0.703125 Z M 13.03125 0.703125 "/></g></g></g><g fill="#000000" fill-opacity="1"><g transform="translate(331.534479, 204.441937)"><g><path d="M 5.6875 0.46875 C 4.738281 0.46875 3.90625 0.113281 3.1875 -0.59375 C 2.476562 -1.300781 2.125 -2.128906 2.125 -3.078125 C 2.125 -4.023438 2.476562 -4.851562 3.1875 -5.5625 C 3.90625 -6.28125 4.738281 -6.640625 5.6875 -6.640625 C 6.632812 -6.640625 7.460938 -6.28125 8.171875 -5.5625 C 8.878906 -4.851562 9.234375 -4.023438 9.234375 -3.078125 C 9.234375 -2.128906 8.878906 -1.300781 8.171875 -0.59375 C 7.460938 0.113281 6.632812 0.46875 5.6875 0.46875 Z M 5.6875 0.46875 "/></g></g></g><g fill="#000000" fill-opacity="1"><g transform="translate(153.101127, 221.599994)"><g><path d="M 4.125 0.203125 C 3.46875 0.203125 2.847656 0.0546875 2.265625 -0.234375 C 2.003906 -0.367188 1.785156 -0.523438 1.609375 -0.703125 C 1.472656 -0.484375 1.3125 -0.289062 1.125 -0.125 C 0.957031 0 0.863281 0.0625 0.84375 0.0625 L 0.484375 0.0625 L 0.484375 -2.59375 L 1.046875 -2.59375 C 1.191406 -2.132812 1.390625 -1.722656 1.640625 -1.359375 C 2.203125 -0.546875 2.9375 -0.140625 3.84375 -0.140625 C 4.375 -0.140625 4.796875 -0.296875 5.109375 -0.609375 C 5.429688 -0.929688 5.59375 -1.359375 5.59375 -1.890625 C 5.59375 -2.203125 5.5 -2.476562 5.3125 -2.71875 C 5.132812 -2.957031 4.910156 -3.171875 4.640625 -3.359375 C 4.367188 -3.546875 3.992188 -3.78125 3.515625 -4.0625 C 2.898438 -4.40625 2.398438 -4.71875 2.015625 -5 C 1.628906 -5.28125 1.300781 -5.628906 1.03125 -6.046875 C 0.757812 -6.472656 0.625 -6.976562 0.625 -7.5625 C 0.625 -8.019531 0.753906 -8.429688 1.015625 -8.796875 C 1.273438 -9.171875 1.660156 -9.46875 2.171875 -9.6875 C 2.679688 -9.90625 3.3125 -10.015625 4.0625 -10.015625 C 4.601562 -10.015625 5.144531 -9.859375 5.6875 -9.546875 C 5.882812 -9.429688 6.085938 -9.28125 6.296875 -9.09375 C 6.453125 -9.34375 6.617188 -9.535156 6.796875 -9.671875 C 6.960938 -9.796875 7.050781 -9.863281 7.0625 -9.875 L 7.421875 -9.875 L 7.421875 -7.203125 L 6.859375 -7.203125 C 6.734375 -7.648438 6.550781 -8.054688 6.3125 -8.421875 C 6.09375 -8.773438 5.816406 -9.066406 5.484375 -9.296875 C 5.148438 -9.535156 4.769531 -9.65625 4.34375 -9.65625 C 3.976562 -9.65625 3.664062 -9.507812 3.40625 -9.21875 C 3.144531 -8.9375 3.015625 -8.570312 3.015625 -8.125 C 3.015625 -7.78125 3.113281 -7.46875 3.3125 -7.1875 C 3.507812 -6.914062 3.753906 -6.675781 4.046875 -6.46875 C 4.347656 -6.257812 4.75 -6.007812 5.25 -5.71875 C 5.832031 -5.382812 6.304688 -5.085938 6.671875 -4.828125 C 7.035156 -4.566406 7.34375 -4.242188 7.59375 -3.859375 C 7.851562 -3.472656 7.984375 -3.023438 7.984375 -2.515625 C 7.984375 -2.015625 7.835938 -1.554688 7.546875 -1.140625 C 7.253906 -0.722656 6.816406 -0.394531 6.234375 -0.15625 C 5.660156 0.0820312 4.957031 0.203125 4.125 0.203125 Z M 4.125 0.203125 "/></g></g></g><g fill="#000000" fill-opacity="1"><g transform="translate(167.026474, 221.599994)"><g><path d="M 2.453125 -0.203125 L 3.296875 -0.421875 L 3.296875 -9.453125 L 1.6875 -9.453125 C 1.6875 -8.878906 1.53125 -8.332031 1.21875 -7.8125 C 1.082031 -7.59375 0.929688 -7.414062 0.765625 -7.28125 L 0.34375 -7.28125 L 0.34375 -9.796875 L 8.546875 -9.796875 L 8.546875 -7.28125 L 8.125 -7.28125 C 7.945312 -7.414062 7.789062 -7.59375 7.65625 -7.8125 C 7.351562 -8.3125 7.203125 -8.859375 7.203125 -9.453125 L 5.59375 -9.453125 L 5.59375 -0.421875 L 6.4375 -0.203125 L 6.4375 0 L 2.453125 0 Z M 2.453125 -0.203125 "/></g></g></g><g fill="#000000" fill-opacity="1"><g transform="translate(181.511518, 221.599994)"><g><path d="M 5.1875 0.203125 C 4.269531 0.203125 3.46875 0.00390625 2.78125 -0.390625 C 2.09375 -0.785156 1.5625 -1.363281 1.1875 -2.125 C 0.8125 -2.894531 0.625 -3.820312 0.625 -4.90625 C 0.625 -5.988281 0.8125 -6.910156 1.1875 -7.671875 C 1.5625 -8.429688 2.09375 -9.007812 2.78125 -9.40625 C 3.46875 -9.8125 4.269531 -10.015625 5.1875 -10.015625 C 6.09375 -10.015625 6.890625 -9.8125 7.578125 -9.40625 C 8.265625 -9.007812 8.796875 -8.429688 9.171875 -7.671875 C 9.546875 -6.910156 9.734375 -5.988281 9.734375 -4.90625 C 9.734375 -3.820312 9.546875 -2.894531 9.171875 -2.125 C 8.796875 -1.363281 8.265625 -0.785156 7.578125 -0.390625 C 6.890625 0.00390625 6.09375 0.203125 5.1875 0.203125 Z M 5.1875 -0.0625 C 5.539062 -0.0625 5.875 -0.21875 6.1875 -0.53125 C 6.5 -0.84375 6.757812 -1.359375 6.96875 -2.078125 C 7.175781 -2.796875 7.28125 -3.738281 7.28125 -4.90625 C 7.28125 -6.070312 7.175781 -7.015625 6.96875 -7.734375 C 6.757812 -8.453125 6.5 -8.960938 6.1875 -9.265625 C 5.875 -9.578125 5.539062 -9.734375 5.1875 -9.734375 C 4.820312 -9.734375 4.484375 -9.578125 4.171875 -9.265625 C 3.859375 -8.960938 3.597656 -8.453125 3.390625 -7.734375 C 3.179688 -7.015625 3.078125 -6.070312 3.078125 -4.90625 C 3.078125 -3.738281 3.179688 -2.796875 3.390625 -2.078125 C 3.597656 -1.359375 3.859375 -0.84375 4.171875 -0.53125 C 4.484375 -0.21875 4.820312 -0.0625 5.1875 -0.0625 Z M 5.1875 -0.0625 "/></g></g></g><g fill="#000000" fill-opacity="1"><g transform="translate(197.465743, 221.599994)"><g><path d="M 0.703125 -0.203125 L 1.546875 -0.421875 L 1.546875 -9.375 L 0.703125 -9.59375 L 0.703125 -9.796875 L 4.40625 -9.796875 C 6 -9.796875 7.144531 -9.554688 7.84375 -9.078125 C 8.539062 -8.597656 8.890625 -7.925781 8.890625 -7.0625 C 8.890625 -6.488281 8.734375 -6.019531 8.421875 -5.65625 C 8.117188 -5.300781 7.722656 -5.035156 7.234375 -4.859375 C 6.722656 -4.660156 6.175781 -4.554688 5.59375 -4.546875 L 5.59375 -4.484375 C 5.945312 -4.460938 6.253906 -4.410156 6.515625 -4.328125 C 7.160156 -4.117188 7.601562 -3.75 7.84375 -3.21875 L 9.09375 -0.421875 L 9.796875 -0.203125 L 9.796875 0 L 7.84375 0 C 7.070312 0 6.507812 -0.394531 6.15625 -1.1875 L 4.765625 -4.34375 L 3.84375 -4.34375 L 3.84375 -0.421875 L 4.828125 -0.203125 L 4.828125 0 L 0.703125 0 Z M 4.40625 -4.6875 C 5.0625 -4.6875 5.578125 -4.890625 5.953125 -5.296875 C 6.328125 -5.710938 6.515625 -6.300781 6.515625 -7.0625 C 6.515625 -7.832031 6.328125 -8.421875 5.953125 -8.828125 C 5.578125 -9.242188 5.0625 -9.453125 4.40625 -9.453125 L 3.84375 -9.453125 L 3.84375 -4.6875 Z M 4.40625 -4.6875 "/></g></g></g><g fill="#000000" fill-opacity="1"><g transform="translate(212.860271, 221.599994)"><g><path d="M 0.703125 -0.203125 L 1.546875 -0.421875 L 1.546875 -9.375 L 0.703125 -9.59375 L 0.703125 -9.796875 L 8.1875 -9.796875 L 8.1875 -7.28125 L 7.765625 -7.28125 C 7.585938 -7.414062 7.4375 -7.59375 7.3125 -7.8125 C 7.007812 -8.3125 6.859375 -8.859375 6.859375 -9.453125 L 3.84375 -9.453125 L 3.84375 -5.046875 L 5.453125 -5.046875 C 5.523438 -5.398438 5.648438 -5.726562 5.828125 -6.03125 C 5.898438 -6.175781 5.988281 -6.3125 6.09375 -6.4375 L 6.515625 -6.4375 L 6.515625 -3.296875 L 6.09375 -3.296875 C 5.988281 -3.421875 5.898438 -3.554688 5.828125 -3.703125 C 5.648438 -4.003906 5.523438 -4.332031 5.453125 -4.6875 L 3.84375 -4.6875 L 3.84375 -0.34375 L 7.140625 -0.34375 C 7.140625 -0.9375 7.289062 -1.484375 7.59375 -1.984375 C 7.71875 -2.203125 7.867188 -2.378906 8.046875 -2.515625 L 8.46875 -2.515625 L 8.46875 0 L 0.703125 0 Z M 0.703125 -0.203125 "/></g></g></g></svg>