<svg xmlns="http://www.w3.org/2000/svg" xmlns:xlink="http://www.w3.org/1999/xlink" width="500" zoomAndPan="magnify" viewBox="0 0 375 374.999991" height="500" preserveAspectRatio="xMidYMid meet" version="1.0"><defs><clipPath id="2fba4b0aa9"><path d="M 108.695312 179.953125 L 233.945312 179.953125 L 233.945312 202.453125 L 108.695312 202.453125 Z M 108.695312 179.953125 " clip-rule="nonzero"/></clipPath><clipPath id="b5f8e58788"><path d="M 108.695312 181 L 120 181 L 120 195 L 108.695312 195 Z M 108.695312 181 " clip-rule="nonzero"/></clipPath></defs><rect x="-37.5" width="450" fill="#ffffff" y="-37.499999" height="449.999989" fill-opacity="1"/><rect x="-37.5" width="450" fill="#ffffff" y="-37.499999" height="449.999989" fill-opacity="1"/><rect x="-37.5" width="450" fill="#ffffff" y="-37.499999" height="449.999989" fill-opacity="1"/><g clip-path="url(#2fba4b0aa9)"><path fill="#ffffff" d="M 80.394531 97.5 L 260.394531 97.5 L 260.394531 277.5 L 80.394531 277.5 Z M 80.394531 97.5 " fill-opacity="1" fill-rule="nonzero"/><path fill="#ffffff" d="M 80.394531 97.5 L 260.394531 97.5 L 260.394531 277.5 L 80.394531 277.5 Z M 80.394531 97.5 " fill-opacity="1" fill-rule="nonzero"/><path fill="#ffffff" d="M 80.394531 97.5 L 260.394531 97.5 L 260.394531 277.5 L 80.394531 277.5 Z M 80.394531 97.5 " fill-opacity="1" fill-rule="nonzero"/></g><g clip-path="url(#b5f8e58788)"><path fill="#000000" d="M 115.238281 194.558594 C 114.394531 194.558594 113.6875 194.273438 113.121094 193.707031 C 112.878906 193.453125 112.667969 193.171875 112.488281 192.859375 C 112.402344 193.132812 112.253906 193.386719 112.039062 193.613281 C 111.554688 194.117188 110.855469 194.371094 109.933594 194.371094 L 109.746094 194.371094 L 109.746094 181.578125 L 108.609375 181.289062 L 108.609375 181.007812 L 111.070312 181.007812 C 112.207031 181.007812 112.777344 181.578125 112.777344 182.714844 L 112.777344 185.269531 C 112.976562 185.109375 113.171875 184.984375 113.363281 184.894531 C 113.816406 184.640625 114.347656 184.515625 114.957031 184.515625 C 116.234375 184.515625 117.246094 184.949219 117.996094 185.8125 C 118.75 186.679688 119.128906 187.921875 119.128906 189.539062 C 119.128906 190.613281 118.957031 191.527344 118.613281 192.277344 C 118.273438 193.027344 117.808594 193.59375 117.226562 193.984375 C 116.648438 194.367188 115.984375 194.558594 115.238281 194.558594 Z M 114.484375 193.894531 C 114.886719 193.894531 115.222656 193.578125 115.496094 192.9375 C 115.765625 192.300781 115.902344 191.167969 115.902344 189.539062 C 115.902344 187.832031 115.753906 186.664062 115.457031 186.03125 C 115.160156 185.398438 114.742188 185.082031 114.195312 185.082031 C 113.871094 185.082031 113.535156 185.210938 113.195312 185.464844 C 113.089844 185.539062 112.953125 185.664062 112.777344 185.839844 L 112.777344 192.382812 C 112.890625 192.671875 113.027344 192.921875 113.195312 193.140625 C 113.574219 193.644531 114.003906 193.894531 114.484375 193.894531 Z M 114.484375 193.894531 " fill-opacity="1" fill-rule="nonzero"/></g><path fill="#000000" d="M 122.726562 198.351562 C 122.15625 198.351562 121.710938 198.199219 121.394531 197.894531 C 121.082031 197.59375 120.925781 197.179688 120.925781 196.644531 C 120.925781 196.164062 121.054688 195.792969 121.316406 195.527344 C 121.574219 195.257812 121.917969 195.125 122.347656 195.125 C 122.449219 195.125 122.550781 195.136719 122.652344 195.15625 C 122.753906 195.179688 122.820312 195.1875 122.859375 195.1875 L 123.109375 195.226562 L 123.109375 197.78125 C 123.472656 197.71875 123.796875 197.515625 124.070312 197.175781 C 124.347656 196.835938 124.660156 196.246094 125.003906 195.414062 L 125.382812 194.464844 L 120.453125 185.363281 L 119.503906 185.082031 L 119.503906 184.796875 L 121.871094 184.796875 C 122.527344 184.796875 123.050781 184.933594 123.433594 185.207031 C 123.820312 185.480469 124.152344 185.878906 124.433594 186.40625 L 126.800781 190.789062 L 128.796875 185.652344 L 127.371094 185.082031 L 127.371094 184.796875 L 130.878906 184.796875 L 130.878906 185.082031 L 129.363281 185.652344 L 125.570312 195.414062 C 125.167969 196.453125 124.734375 197.199219 124.277344 197.65625 C 123.824219 198.121094 123.304688 198.351562 122.726562 198.351562 Z M 122.726562 198.351562 " fill-opacity="1" fill-rule="nonzero"/><path fill="#000000" d="M 136.183594 194.558594 C 135.351562 194.558594 134.628906 194.40625 134.015625 194.109375 C 133.402344 193.804688 132.929688 193.386719 132.601562 192.859375 C 132.273438 192.324219 132.109375 191.722656 132.109375 191.050781 L 132.109375 185.269531 L 130.777344 185.269531 L 130.777344 184.796875 L 132.109375 184.796875 L 132.109375 183.851562 C 132.109375 182.714844 132.679688 182.144531 133.816406 182.144531 L 135.140625 182.144531 L 135.140625 184.796875 L 137.796875 184.796875 L 137.796875 185.269531 L 135.140625 185.269531 L 135.140625 191.050781 C 135.140625 192.214844 135.257812 193.011719 135.496094 193.445312 C 135.738281 193.875 136.09375 194.089844 136.566406 194.089844 C 137.019531 194.089844 137.417969 193.867188 137.757812 193.425781 C 138.101562 192.980469 138.273438 192.378906 138.273438 191.621094 L 138.742188 191.621094 C 138.742188 192.558594 138.507812 193.28125 138.039062 193.796875 C 137.574219 194.304688 136.953125 194.558594 136.183594 194.558594 Z M 136.183594 194.558594 " fill-opacity="1" fill-rule="nonzero"/><path fill="#000000" d="M 144.902344 194.558594 C 143.285156 194.558594 142.027344 194.113281 141.125 193.226562 C 140.230469 192.335938 139.78125 191.105469 139.78125 189.539062 C 139.78125 188.515625 139.976562 187.625 140.371094 186.863281 C 140.761719 186.105469 141.308594 185.523438 142.007812 185.121094 C 142.710938 184.71875 143.515625 184.515625 144.425781 184.515625 C 145.339844 184.515625 146.136719 184.6875 146.824219 185.027344 C 147.511719 185.367188 148.042969 185.828125 148.414062 186.402344 C 148.789062 186.976562 148.976562 187.613281 148.976562 188.308594 C 148.976562 188.621094 148.945312 188.890625 148.882812 189.121094 L 148.789062 189.445312 C 148.246094 189.558594 147.660156 189.652344 147.027344 189.726562 C 145.695312 189.917969 144.355469 190.015625 143.007812 190.015625 C 143.007812 191.476562 143.207031 192.523438 143.613281 193.152344 C 144.015625 193.777344 144.574219 194.089844 145.28125 194.089844 C 145.773438 194.089844 146.230469 193.972656 146.652344 193.738281 C 147.074219 193.5 147.410156 193.191406 147.65625 192.808594 C 147.90625 192.421875 148.03125 192.023438 148.03125 191.621094 L 148.507812 191.621094 C 148.507812 192.128906 148.355469 192.609375 148.050781 193.0625 C 147.746094 193.519531 147.320312 193.882812 146.777344 194.152344 C 146.234375 194.421875 145.609375 194.558594 144.902344 194.558594 Z M 143.007812 189.539062 C 143.816406 189.539062 144.472656 189.507812 144.976562 189.445312 C 145.191406 189.433594 145.421875 189.398438 145.664062 189.34375 C 145.675781 189.28125 145.707031 189.144531 145.757812 188.933594 C 145.820312 188.617188 145.851562 188.28125 145.851562 187.925781 C 145.851562 186.875 145.710938 186.109375 145.433594 185.625 C 145.152344 185.140625 144.816406 184.894531 144.425781 184.894531 C 143.480469 184.894531 143.007812 186.445312 143.007812 189.539062 Z M 143.007812 189.539062 " fill-opacity="1" fill-rule="nonzero"/><path fill="#000000" d="M 154.851562 194.558594 C 154.066406 194.558594 153.367188 194.390625 152.746094 194.050781 C 152.445312 193.886719 152.199219 193.707031 152.007812 193.519531 C 151.808594 193.796875 151.585938 194.011719 151.34375 194.164062 C 151.234375 194.238281 151.105469 194.308594 150.964844 194.371094 L 150.488281 194.371094 L 150.488281 191.152344 L 151.25 191.152344 C 151.414062 191.679688 151.652344 192.171875 151.96875 192.625 C 152.640625 193.601562 153.472656 194.089844 154.46875 194.089844 C 155.003906 194.089844 155.40625 193.960938 155.675781 193.703125 C 155.945312 193.4375 156.082031 193.0625 156.082031 192.570312 C 156.082031 192.15625 155.894531 191.804688 155.519531 191.519531 C 155.148438 191.234375 154.566406 190.882812 153.769531 190.464844 C 153.085938 190.125 152.53125 189.816406 152.109375 189.546875 C 151.6875 189.273438 151.328125 188.9375 151.03125 188.527344 C 150.734375 188.113281 150.589844 187.628906 150.589844 187.070312 C 150.589844 186.3125 150.914062 185.699219 151.5625 185.226562 C 152.214844 184.75 153.214844 184.515625 154.570312 184.515625 C 155.234375 184.515625 155.855469 184.691406 156.425781 185.046875 C 156.703125 185.207031 156.945312 185.378906 157.144531 185.558594 C 157.308594 185.328125 157.527344 185.113281 157.808594 184.914062 C 158.023438 184.785156 158.152344 184.714844 158.1875 184.703125 L 158.664062 184.703125 L 158.664062 187.925781 L 157.902344 187.925781 C 157.714844 187.386719 157.480469 186.898438 157.203125 186.464844 C 156.570312 185.480469 155.820312 184.988281 154.945312 184.988281 C 154.601562 184.988281 154.3125 185.117188 154.070312 185.371094 C 153.832031 185.621094 153.714844 185.9375 153.714844 186.3125 C 153.714844 186.792969 153.914062 187.195312 154.320312 187.519531 C 154.722656 187.84375 155.335938 188.210938 156.15625 188.625 C 156.828125 188.96875 157.359375 189.269531 157.757812 189.527344 C 158.15625 189.785156 158.5 190.105469 158.78125 190.484375 C 159.070312 190.863281 159.214844 191.304688 159.214844 191.8125 C 159.214844 193.644531 157.757812 194.558594 154.851562 194.558594 Z M 154.851562 194.558594 " fill-opacity="1" fill-rule="nonzero"/><path fill="#000000" d="M 165.75 194.558594 C 164.132812 194.558594 162.875 194.113281 161.972656 193.226562 C 161.078125 192.335938 160.628906 191.105469 160.628906 189.539062 C 160.628906 188.515625 160.824219 187.625 161.21875 186.863281 C 161.609375 186.105469 162.15625 185.523438 162.855469 185.121094 C 163.558594 184.71875 164.363281 184.515625 165.273438 184.515625 C 166.1875 184.515625 166.984375 184.6875 167.671875 185.027344 C 168.359375 185.367188 168.890625 185.828125 169.261719 186.402344 C 169.636719 186.976562 169.824219 187.613281 169.824219 188.308594 C 169.824219 188.621094 169.792969 188.890625 169.730469 189.121094 L 169.636719 189.445312 C 169.09375 189.558594 168.507812 189.652344 167.875 189.726562 C 166.542969 189.917969 165.203125 190.015625 163.855469 190.015625 C 163.855469 191.476562 164.054688 192.523438 164.460938 193.152344 C 164.863281 193.777344 165.421875 194.089844 166.128906 194.089844 C 166.621094 194.089844 167.078125 193.972656 167.5 193.738281 C 167.921875 193.5 168.257812 193.191406 168.503906 192.808594 C 168.753906 192.421875 168.878906 192.023438 168.878906 191.621094 L 169.355469 191.621094 C 169.355469 192.128906 169.203125 192.609375 168.898438 193.0625 C 168.59375 193.519531 168.167969 193.882812 167.625 194.152344 C 167.082031 194.421875 166.457031 194.558594 165.75 194.558594 Z M 163.855469 189.539062 C 164.664062 189.539062 165.320312 189.507812 165.824219 189.445312 C 166.039062 189.433594 166.269531 189.398438 166.511719 189.34375 C 166.523438 189.28125 166.554688 189.144531 166.605469 188.933594 C 166.667969 188.617188 166.699219 188.28125 166.699219 187.925781 C 166.699219 186.875 166.558594 186.109375 166.28125 185.625 C 166 185.140625 165.664062 184.894531 165.273438 184.894531 C 164.328125 184.894531 163.855469 186.445312 163.855469 189.539062 Z M 163.855469 189.539062 " fill-opacity="1" fill-rule="nonzero"/><path fill="#000000" d="M 171.242188 193.996094 L 172.378906 193.707031 L 172.378906 185.363281 L 171.242188 185.082031 L 171.242188 184.796875 L 172.949219 184.796875 C 173.695312 184.796875 174.28125 185.039062 174.710938 185.519531 C 174.878906 185.707031 175.019531 185.941406 175.128906 186.21875 C 175.320312 185.941406 175.554688 185.6875 175.832031 185.464844 C 176.464844 184.957031 177.171875 184.703125 177.957031 184.703125 C 178.625 184.703125 179.128906 184.859375 179.460938 185.171875 C 179.800781 185.480469 179.96875 185.921875 179.96875 186.5 C 179.96875 186.9375 179.835938 187.28125 179.574219 187.539062 C 179.316406 187.796875 178.972656 187.925781 178.542969 187.925781 C 178.367188 187.925781 178.191406 187.914062 178.011719 187.890625 L 177.785156 187.832031 L 177.785156 185.175781 C 177.140625 185.175781 176.550781 185.429688 176.023438 185.933594 C 175.769531 186.1875 175.566406 186.441406 175.417969 186.695312 L 175.417969 193.707031 L 176.554688 193.996094 L 176.554688 194.277344 L 171.242188 194.277344 Z M 171.242188 193.996094 " fill-opacity="1" fill-rule="nonzero"/><path fill="#000000" d="M 180.625 185.363281 L 179.675781 185.082031 L 179.675781 184.796875 L 182.046875 184.796875 C 182.703125 184.796875 183.222656 184.933594 183.609375 185.207031 C 183.996094 185.480469 184.328125 185.878906 184.609375 186.40625 L 186.863281 190.789062 L 188.96875 185.652344 L 187.546875 185.082031 L 187.546875 184.796875 L 191.050781 184.796875 L 191.050781 185.082031 L 189.539062 185.652344 L 185.933594 194.464844 L 185.363281 194.464844 Z M 180.625 185.363281 " fill-opacity="1" fill-rule="nonzero"/><path fill="#000000" d="M 191.425781 193.996094 L 192.566406 193.707031 L 192.566406 185.363281 L 191.425781 185.082031 L 191.425781 184.796875 L 193.894531 184.796875 C 195.035156 184.796875 195.601562 185.363281 195.601562 186.5 L 195.601562 193.707031 L 196.738281 193.996094 L 196.738281 194.277344 L 191.425781 194.277344 Z M 193.894531 183.664062 C 193.515625 183.664062 193.199219 183.539062 192.945312 183.28125 C 192.695312 183.03125 192.570312 182.710938 192.570312 182.332031 C 192.570312 181.953125 192.695312 181.640625 192.945312 181.390625 C 193.199219 181.136719 193.515625 181.007812 193.894531 181.007812 C 194.273438 181.007812 194.589844 181.136719 194.839844 181.390625 C 195.09375 181.640625 195.222656 181.953125 195.222656 182.332031 C 195.222656 182.710938 195.09375 183.03125 194.839844 183.28125 C 194.589844 183.539062 194.273438 183.664062 193.894531 183.664062 Z M 193.894531 183.664062 " fill-opacity="1" fill-rule="nonzero"/><path fill="#000000" d="M 202.988281 194.558594 C 201.371094 194.558594 200.113281 194.113281 199.214844 193.226562 C 198.316406 192.335938 197.871094 191.105469 197.871094 189.539062 C 197.871094 187.972656 198.316406 186.742188 199.214844 185.851562 C 200.113281 184.960938 201.371094 184.515625 202.988281 184.515625 C 204.152344 184.515625 205.027344 184.71875 205.613281 185.121094 C 206.203125 185.523438 206.496094 186.019531 206.496094 186.601562 C 206.496094 187.03125 206.367188 187.375 206.109375 187.632812 C 205.847656 187.890625 205.503906 188.019531 205.078125 188.019531 C 204.898438 188.019531 204.722656 188.007812 204.546875 187.984375 L 204.320312 187.925781 L 204.320312 185.082031 L 204.050781 184.988281 C 203.863281 184.925781 203.636719 184.894531 203.371094 184.894531 C 202.648438 184.894531 202.089844 185.238281 201.691406 185.921875 C 201.292969 186.601562 201.097656 187.804688 201.097656 189.539062 C 201.097656 191.21875 201.292969 192.398438 201.691406 193.078125 C 202.089844 193.75 202.648438 194.089844 203.371094 194.089844 C 203.863281 194.089844 204.316406 193.972656 204.738281 193.738281 C 205.164062 193.5 205.5 193.191406 205.746094 192.808594 C 205.996094 192.421875 206.121094 192.023438 206.121094 191.621094 L 206.597656 191.621094 C 206.597656 192.128906 206.441406 192.609375 206.140625 193.0625 C 205.835938 193.519531 205.410156 193.882812 204.863281 194.152344 C 204.324219 194.421875 203.699219 194.558594 202.988281 194.558594 Z M 202.988281 194.558594 " fill-opacity="1" fill-rule="nonzero"/><path fill="#000000" d="M 213.035156 194.558594 C 211.417969 194.558594 210.160156 194.113281 209.257812 193.226562 C 208.363281 192.335938 207.914062 191.105469 207.914062 189.539062 C 207.914062 188.515625 208.109375 187.625 208.503906 186.863281 C 208.894531 186.105469 209.441406 185.523438 210.140625 185.121094 C 210.84375 184.71875 211.648438 184.515625 212.558594 184.515625 C 213.472656 184.515625 214.273438 184.6875 214.960938 185.027344 C 215.648438 185.367188 216.175781 185.828125 216.546875 186.402344 C 216.921875 186.976562 217.109375 187.613281 217.109375 188.308594 C 217.109375 188.621094 217.078125 188.890625 217.015625 189.121094 L 216.921875 189.445312 C 216.378906 189.558594 215.792969 189.652344 215.160156 189.726562 C 213.828125 189.917969 212.492188 190.015625 211.140625 190.015625 C 211.140625 191.476562 211.34375 192.523438 211.746094 193.152344 C 212.148438 193.777344 212.707031 194.089844 213.414062 194.089844 C 213.90625 194.089844 214.363281 193.972656 214.785156 193.738281 C 215.210938 193.5 215.542969 193.191406 215.789062 192.808594 C 216.039062 192.421875 216.164062 192.023438 216.164062 191.621094 L 216.640625 191.621094 C 216.640625 192.128906 216.488281 192.609375 216.183594 193.0625 C 215.878906 193.519531 215.453125 193.882812 214.910156 194.152344 C 214.367188 194.421875 213.742188 194.558594 213.035156 194.558594 Z M 211.140625 189.539062 C 211.949219 189.539062 212.605469 189.507812 213.109375 189.445312 C 213.324219 189.433594 213.554688 189.398438 213.796875 189.34375 C 213.808594 189.28125 213.839844 189.144531 213.890625 188.933594 C 213.953125 188.617188 213.984375 188.28125 213.984375 187.925781 C 213.984375 186.875 213.84375 186.109375 213.566406 185.625 C 213.285156 185.140625 212.949219 184.894531 212.558594 184.894531 C 211.613281 184.894531 211.140625 186.445312 211.140625 189.539062 Z M 211.140625 189.539062 " fill-opacity="1" fill-rule="nonzero"/><path fill="#000000" d="M 222.984375 194.558594 C 222.203125 194.558594 221.5 194.390625 220.878906 194.050781 C 220.578125 193.886719 220.332031 193.707031 220.140625 193.519531 C 219.941406 193.796875 219.71875 194.011719 219.480469 194.164062 C 219.367188 194.238281 219.238281 194.308594 219.097656 194.371094 L 218.625 194.371094 L 218.625 191.152344 L 219.386719 191.152344 C 219.546875 191.679688 219.789062 192.171875 220.105469 192.625 C 220.773438 193.601562 221.609375 194.089844 222.605469 194.089844 C 223.136719 194.089844 223.539062 193.960938 223.8125 193.703125 C 224.082031 193.4375 224.21875 193.0625 224.21875 192.570312 C 224.21875 192.15625 224.03125 191.804688 223.65625 191.519531 C 223.28125 191.234375 222.699219 190.882812 221.90625 190.464844 C 221.21875 190.125 220.667969 189.816406 220.242188 189.546875 C 219.820312 189.273438 219.460938 188.9375 219.167969 188.527344 C 218.871094 188.113281 218.722656 187.628906 218.722656 187.070312 C 218.722656 186.3125 219.046875 185.699219 219.699219 185.226562 C 220.347656 184.75 221.351562 184.515625 222.703125 184.515625 C 223.371094 184.515625 223.988281 184.691406 224.5625 185.046875 C 224.839844 185.207031 225.078125 185.378906 225.28125 185.558594 C 225.441406 185.328125 225.664062 185.113281 225.941406 184.914062 C 226.15625 184.785156 226.285156 184.714844 226.324219 184.703125 L 226.796875 184.703125 L 226.796875 187.925781 L 226.035156 187.925781 C 225.847656 187.386719 225.613281 186.898438 225.335938 186.464844 C 224.707031 185.480469 223.953125 184.988281 223.078125 184.988281 C 222.738281 184.988281 222.445312 185.117188 222.203125 185.371094 C 221.96875 185.621094 221.847656 185.9375 221.847656 186.3125 C 221.847656 186.792969 222.050781 187.195312 222.453125 187.519531 C 222.859375 187.84375 223.46875 188.210938 224.292969 188.625 C 224.960938 188.96875 225.496094 189.269531 225.890625 189.527344 C 226.292969 189.785156 226.632812 190.105469 226.917969 190.484375 C 227.203125 190.863281 227.347656 191.304688 227.347656 191.8125 C 227.347656 193.644531 225.894531 194.558594 222.984375 194.558594 Z M 222.984375 194.558594 " fill-opacity="1" fill-rule="nonzero"/><path fill="#000000" d="M 230.28125 194.464844 C 229.902344 194.464844 229.570312 194.320312 229.28125 194.039062 C 228.996094 193.757812 228.855469 193.425781 228.855469 193.046875 C 228.855469 192.667969 228.996094 192.335938 229.28125 192.050781 C 229.570312 191.765625 229.902344 191.621094 230.28125 191.621094 C 230.660156 191.621094 230.992188 191.765625 231.277344 192.050781 C 231.558594 192.335938 231.699219 192.667969 231.699219 193.046875 C 231.699219 193.425781 231.558594 193.757812 231.277344 194.039062 C 230.992188 194.320312 230.660156 194.464844 230.28125 194.464844 Z M 230.28125 194.464844 " fill-opacity="1" fill-rule="nonzero"/><path fill="#000000" d="M 158.285156 201.222656 C 158.023438 201.222656 157.773438 201.160156 157.539062 201.046875 C 157.4375 200.992188 157.347656 200.929688 157.277344 200.859375 C 157.222656 200.945312 157.160156 201.023438 157.085938 201.089844 C 157.015625 201.140625 156.980469 201.164062 156.972656 201.164062 L 156.828125 201.164062 L 156.828125 200.101562 L 157.054688 200.101562 C 157.109375 200.285156 157.191406 200.449219 157.289062 200.597656 C 157.515625 200.921875 157.808594 201.082031 158.171875 201.082031 C 158.382812 201.082031 158.554688 201.019531 158.679688 200.894531 C 158.804688 200.769531 158.871094 200.597656 158.871094 200.382812 C 158.871094 200.257812 158.835938 200.148438 158.757812 200.050781 C 158.6875 199.957031 158.597656 199.871094 158.492188 199.796875 C 158.382812 199.722656 158.230469 199.628906 158.039062 199.515625 C 157.792969 199.378906 157.59375 199.253906 157.441406 199.140625 C 157.285156 199.027344 157.15625 198.886719 157.046875 198.722656 C 156.9375 198.550781 156.882812 198.347656 156.882812 198.113281 C 156.882812 197.933594 156.9375 197.769531 157.039062 197.621094 C 157.144531 197.472656 157.296875 197.351562 157.503906 197.265625 C 157.707031 197.175781 157.960938 197.132812 158.257812 197.132812 C 158.476562 197.132812 158.691406 197.195312 158.910156 197.320312 C 158.988281 197.367188 159.070312 197.425781 159.152344 197.503906 C 159.214844 197.402344 159.28125 197.324219 159.351562 197.269531 C 159.417969 197.222656 159.453125 197.195312 159.460938 197.191406 L 159.601562 197.191406 L 159.601562 198.257812 L 159.378906 198.257812 C 159.328125 198.082031 159.253906 197.917969 159.160156 197.769531 C 159.070312 197.628906 158.960938 197.511719 158.828125 197.421875 C 158.695312 197.324219 158.542969 197.277344 158.371094 197.277344 C 158.226562 197.277344 158.101562 197.335938 157.996094 197.453125 C 157.890625 197.566406 157.839844 197.710938 157.839844 197.890625 C 157.839844 198.027344 157.878906 198.152344 157.960938 198.265625 C 158.039062 198.375 158.136719 198.46875 158.253906 198.550781 C 158.375 198.636719 158.535156 198.738281 158.734375 198.851562 C 158.96875 198.988281 159.15625 199.105469 159.304688 199.207031 C 159.449219 199.3125 159.570312 199.441406 159.671875 199.597656 C 159.773438 199.75 159.828125 199.929688 159.828125 200.132812 C 159.828125 200.332031 159.769531 200.519531 159.652344 200.683594 C 159.535156 200.851562 159.359375 200.980469 159.128906 201.078125 C 158.898438 201.171875 158.617188 201.222656 158.285156 201.222656 Z M 158.285156 201.222656 " fill-opacity="1" fill-rule="nonzero"/><path fill="#000000" d="M 163.183594 201.058594 L 163.523438 200.972656 L 163.523438 197.359375 L 162.878906 197.359375 C 162.878906 197.589844 162.816406 197.808594 162.691406 198.015625 C 162.636719 198.101562 162.574219 198.175781 162.511719 198.226562 L 162.339844 198.226562 L 162.339844 197.222656 L 165.621094 197.222656 L 165.621094 198.226562 L 165.453125 198.226562 C 165.382812 198.175781 165.320312 198.101562 165.265625 198.015625 C 165.144531 197.816406 165.085938 197.597656 165.085938 197.359375 L 164.441406 197.359375 L 164.441406 200.972656 L 164.777344 201.058594 L 164.777344 201.140625 L 163.183594 201.140625 Z M 163.183594 201.058594 " fill-opacity="1" fill-rule="nonzero"/><path fill="#000000" d="M 170.074219 201.222656 C 169.707031 201.222656 169.386719 201.140625 169.109375 200.984375 C 168.835938 200.824219 168.625 200.59375 168.472656 200.289062 C 168.324219 199.980469 168.25 199.613281 168.25 199.175781 C 168.25 198.746094 168.324219 198.375 168.472656 198.070312 C 168.625 197.769531 168.835938 197.535156 169.109375 197.378906 C 169.386719 197.214844 169.707031 197.132812 170.074219 197.132812 C 170.4375 197.132812 170.753906 197.214844 171.03125 197.378906 C 171.304688 197.535156 171.515625 197.769531 171.667969 198.070312 C 171.816406 198.375 171.890625 198.746094 171.890625 199.175781 C 171.890625 199.613281 171.816406 199.980469 171.667969 200.289062 C 171.515625 200.59375 171.304688 200.824219 171.03125 200.984375 C 170.753906 201.140625 170.4375 201.222656 170.074219 201.222656 Z M 170.074219 201.113281 C 170.214844 201.113281 170.347656 201.050781 170.472656 200.925781 C 170.597656 200.800781 170.703125 200.597656 170.785156 200.308594 C 170.867188 200.019531 170.910156 199.644531 170.910156 199.175781 C 170.910156 198.710938 170.867188 198.332031 170.785156 198.046875 C 170.703125 197.757812 170.597656 197.554688 170.472656 197.433594 C 170.347656 197.308594 170.214844 197.246094 170.074219 197.246094 C 169.925781 197.246094 169.792969 197.308594 169.667969 197.433594 C 169.542969 197.554688 169.4375 197.757812 169.355469 198.046875 C 169.269531 198.332031 169.230469 198.710938 169.230469 199.175781 C 169.230469 199.644531 169.269531 200.019531 169.355469 200.308594 C 169.4375 200.597656 169.542969 200.800781 169.667969 200.925781 C 169.792969 201.050781 169.925781 201.113281 170.074219 201.113281 Z M 170.074219 201.113281 " fill-opacity="1" fill-rule="nonzero"/><path fill="#000000" d="M 174.660156 201.058594 L 175 200.972656 L 175 197.390625 L 174.660156 197.300781 L 174.660156 197.222656 L 176.144531 197.222656 C 176.78125 197.222656 177.238281 197.316406 177.519531 197.507812 C 177.796875 197.699219 177.9375 197.96875 177.9375 198.316406 C 177.9375 198.542969 177.875 198.730469 177.75 198.878906 C 177.628906 199.019531 177.46875 199.125 177.273438 199.195312 C 177.070312 199.277344 176.851562 199.316406 176.617188 199.320312 L 176.617188 199.347656 C 176.757812 199.355469 176.882812 199.375 176.988281 199.410156 C 177.246094 199.492188 177.421875 199.640625 177.519531 199.851562 L 178.019531 200.972656 L 178.300781 201.058594 L 178.300781 201.140625 L 177.519531 201.140625 C 177.207031 201.140625 176.984375 200.980469 176.84375 200.664062 L 176.285156 199.402344 L 175.917969 199.402344 L 175.917969 200.972656 L 176.3125 201.058594 L 176.3125 201.140625 L 174.660156 201.140625 Z M 176.144531 199.265625 C 176.40625 199.265625 176.613281 199.183594 176.761719 199.019531 C 176.910156 198.855469 176.988281 198.621094 176.988281 198.316406 C 176.988281 198.007812 176.910156 197.769531 176.761719 197.609375 C 176.613281 197.441406 176.40625 197.359375 176.144531 197.359375 L 175.917969 197.359375 L 175.917969 199.265625 Z M 176.144531 199.265625 " fill-opacity="1" fill-rule="nonzero"/><path fill="#000000" d="M 180.820312 201.058594 L 181.15625 200.972656 L 181.15625 197.390625 L 180.820312 197.300781 L 180.820312 197.222656 L 183.8125 197.222656 L 183.8125 198.226562 L 183.644531 198.226562 C 183.570312 198.175781 183.511719 198.101562 183.460938 198.015625 C 183.339844 197.816406 183.28125 197.597656 183.28125 197.359375 L 182.074219 197.359375 L 182.074219 199.121094 L 182.71875 199.121094 C 182.746094 198.980469 182.796875 198.847656 182.867188 198.726562 C 182.898438 198.667969 182.933594 198.613281 182.976562 198.566406 L 183.144531 198.566406 L 183.144531 199.820312 L 182.976562 199.820312 C 182.933594 199.769531 182.898438 199.71875 182.867188 199.660156 C 182.796875 199.539062 182.746094 199.40625 182.71875 199.265625 L 182.074219 199.265625 L 182.074219 201.003906 L 183.394531 201.003906 C 183.394531 200.765625 183.453125 200.546875 183.574219 200.347656 C 183.625 200.257812 183.683594 200.1875 183.757812 200.132812 L 183.925781 200.132812 L 183.925781 201.140625 L 180.820312 201.140625 Z M 180.820312 201.058594 " fill-opacity="1" fill-rule="nonzero"/></svg>