<svg xmlns="http://www.w3.org/2000/svg" xmlns:xlink="http://www.w3.org/1999/xlink" width="500" zoomAndPan="magnify" viewBox="0 0 375 374.999991" height="500" preserveAspectRatio="xMidYMid meet" version="1.0"><defs><g/></defs><g fill="#000000" fill-opacity="1"><g transform="translate(24.088093, 189.535351)"><g><path d="M 34.933594 15.839844 L 34.933594 26.925781 L 32.910156 26.925781 C 29.128906 26.925781 22.878906 24.992188 25.078125 21.121094 C 26.222656 18.832031 31.679688 16.542969 34.933594 15.839844 Z M 38.71875 26.398438 L 38.984375 18.390625 C 39.246094 15.488281 38.015625 15.046875 40.832031 14.609375 C 44.789062 13.992188 47.957031 13.640625 51.125 13.640625 C 53.503906 13.640625 55.964844 13.816406 58.871094 14.253906 C 60.542969 14.519531 62.742188 15.136719 64.414062 15.136719 C 62.476562 17.863281 44.527344 26.398438 38.71875 26.398438 Z M 68.023438 12.847656 C 66.527344 12.847656 65.644531 12.582031 64.414062 12.320312 C 59.222656 11.441406 54.910156 10.910156 50.246094 10.910156 C 47.605469 10.910156 44.878906 11.085938 41.796875 11.527344 C 40.65625 11.703125 39.949219 11.878906 39.511719 11.878906 C 38.191406 11.878906 39.6875 10.121094 39.597656 0.527344 L 40.832031 -17.863281 C 41.621094 -23.671875 41.976562 -29.039062 43.03125 -35.464844 C 44.175781 -42.765625 45.320312 -48.046875 46.640625 -55.085938 C 47.253906 -58.34375 47.519531 -57.992188 53.0625 -60.453125 L 61.863281 -63.535156 C 66.613281 -64.941406 71.980469 -66 77.351562 -66 C 81.222656 -66 85.179688 -65.46875 88.789062 -63.886719 C 107.269531 -56.230469 102.429688 -30.183594 94.421875 -16.28125 C 92.484375 -13.023438 90.199219 -9.238281 87.820312 -6.160156 C 87.292969 -5.542969 87.03125 -5.28125 86.589844 -4.664062 C 85.09375 -2.726562 79.109375 3.960938 77.351562 5.367188 C 76.644531 5.894531 76.46875 5.984375 75.765625 6.601562 L 71.367188 10.382812 C 71.015625 10.648438 68.023438 12.847656 68.023438 12.847656 Z M 48.398438 -62.214844 C 48.398438 -63.710938 48.132812 -63.445312 46.992188 -64.0625 C 44.878906 -63.535156 44.789062 -61.863281 44 -60.191406 C 43.558594 -58.957031 41.796875 -58.253906 40.039062 -57.285156 C 35.023438 -54.207031 30.445312 -50.511719 26.046875 -46.640625 C 18.832031 -39.421875 14.167969 -34.582031 8.359375 -25.871094 C 4.3125 -19.886719 -1.761719 -8.535156 -1.761719 -0.527344 C -1.761719 4.222656 1.40625 6.070312 3.34375 6.070312 C 4.3125 6.070312 4.929688 5.632812 4.75 4.839844 C 4.3125 2.816406 0.96875 5.191406 0.96875 -0.527344 C 0.96875 -11 12.496094 -27.542969 19.710938 -35.816406 L 25.519531 -41.976562 C 29.128906 -45.582031 38.542969 -52.886719 42.589844 -54.910156 L 39.421875 -39.421875 C 38.367188 -32.910156 35.992188 -12.320312 36.078125 -5.367188 C 36.078125 -2.550781 35.464844 0.792969 35.464844 3.609375 C 35.464844 6.6875 35.199219 9.328125 35.199219 12.582031 C 31.765625 14.34375 21.734375 15.398438 21.734375 23.054688 C 21.734375 27.632812 28.246094 30.007812 32.207031 30.007812 C 33 30.007812 33.527344 29.917969 33.96875 29.917969 C 34.671875 29.917969 34.847656 30.359375 35.109375 32.558594 C 35.199219 33.96875 35.199219 34.757812 35.550781 35.992188 C 36.078125 37.488281 36.871094 38.015625 37.574219 38.015625 C 38.367188 38.015625 39.070312 37.398438 38.984375 36.78125 L 38.632812 29.742188 C 40.917969 29.65625 45.582031 28.335938 47.429688 27.632812 C 53.0625 25.871094 60.894531 21.910156 65.820312 18.65625 C 67.757812 17.335938 68.460938 16.542969 69.695312 16.542969 C 70.484375 16.542969 71.367188 16.894531 72.949219 17.6875 C 74.621094 18.566406 74.269531 19.269531 75.5 20.0625 C 78.316406 18.128906 75.148438 15.222656 72.421875 14.609375 C 72.773438 13.464844 73.742188 12.9375 75.238281 11.878906 C 76.292969 11 77.261719 10.207031 78.316406 9.328125 C 79.636719 8.273438 83.949219 4.046875 85.269531 2.375 L 87.910156 -0.527344 C 95.828125 -9.855469 101.375 -19.359375 104.277344 -31.765625 C 106.652344 -42.152344 105.859375 -54.117188 97.941406 -62.039062 C 92.484375 -67.582031 84.917969 -69.605469 77.261719 -69.605469 C 71.980469 -69.605469 66.703125 -68.636719 61.863281 -67.230469 L 51.832031 -63.445312 C 50.6875 -63.007812 49.71875 -62.214844 48.398438 -62.214844 Z M 48.398438 -62.214844 "/></g></g></g><g fill="#000000" fill-opacity="1"><g transform="translate(126.779562, 189.535351)"><g><path d="M 4.046875 -15.925781 C 4.664062 -18.128906 7.566406 -21.558594 9.945312 -22 C 9.679688 -19.183594 6.246094 -17.070312 4.046875 -15.925781 Z M 0.0898438 -13.816406 C 0.0898438 -11.351562 0 -9.152344 2.113281 -7.039062 C 3.609375 -5.542969 5.367188 -4.929688 7.214844 -4.929688 C 12.582031 -4.929688 18.65625 -10.296875 21.910156 -13.550781 C 22.703125 -14.519531 22.703125 -14.609375 22.4375 -15.925781 C 19.800781 -15.925781 21.207031 -15.574219 17.597656 -12.757812 C 16.984375 -12.320312 16.71875 -11.96875 16.015625 -11.441406 C 14.253906 -10.121094 10.558594 -7.566406 7.480469 -7.566406 C 6.421875 -7.566406 5.367188 -7.917969 4.574219 -8.710938 C 3.078125 -10.207031 3.257812 -11.617188 3.257812 -13.464844 C 5.984375 -13.640625 9.152344 -16.191406 10.558594 -17.777344 C 13.289062 -21.207031 13.289062 -24.726562 9.414062 -24.726562 C 5.191406 -24.726562 0.0898438 -18.214844 0.0898438 -13.816406 Z M 0.0898438 -13.816406 "/></g></g></g><g fill="#000000" fill-opacity="1"><g transform="translate(145.874714, 189.535351)"><g><path d="M 2.464844 -4.574219 C 5.894531 -4.574219 9.414062 -15.839844 12.320312 -17.777344 C 13.113281 -16.105469 11.878906 -12.582031 13.640625 -7.304688 C 14.429688 -4.929688 15.925781 -2.550781 18.65625 -2.550781 C 19.183594 -2.550781 19.710938 -2.640625 20.328125 -2.816406 C 22.351562 -3.34375 25.167969 -6.863281 26.398438 -8.449219 C 26.925781 -9.152344 32.117188 -15.664062 28.6875 -15.664062 C 27.101562 -15.664062 22.4375 -5.191406 18.917969 -5.191406 C 15.664062 -5.191406 15.488281 -13.023438 15.488281 -15.222656 L 14.960938 -20.152344 C 14.519531 -21.121094 13.902344 -21.558594 13.289062 -21.558594 C 11.175781 -21.558594 8.535156 -17.070312 8.007812 -16.105469 L 3.785156 -9.679688 C 3.785156 -16.542969 9.503906 -24.816406 5.632812 -24.816406 C 2.289062 -24.816406 -3.167969 -4.574219 2.464844 -4.574219 Z M 2.464844 -4.574219 "/></g></g></g><g fill="#000000" fill-opacity="1"><g transform="translate(172.273554, 189.535351)"><g><path d="M 7.304688 0.351562 C 11.441406 0.351562 14.785156 -3.519531 16.894531 -5.71875 C 18.304688 -7.128906 23.582031 -13.023438 23.582031 -14.695312 C 23.582031 -15.488281 23.320312 -15.75 22.96875 -15.75 C 21.296875 -15.75 16.632812 -9.503906 16.28125 -9.0625 C 14.960938 -7.390625 10.382812 -2.726562 7.566406 -2.726562 C 5.191406 -2.726562 4.222656 -7.917969 4.222656 -10.558594 C 4.222656 -19.535156 7.742188 -23.496094 3.695312 -23.496094 C 1.9375 -23.496094 1.054688 -19.535156 0.792969 -17.6875 C -0.175781 -13.199219 0 -7.128906 2.113281 -3.167969 C 3.078125 -1.496094 4.929688 0.351562 7.304688 0.351562 Z M 4.488281 -34.582031 C 4.488281 -32.648438 5.632812 -31.765625 6.863281 -31.765625 C 8.625 -31.765625 10.472656 -33.703125 8.800781 -36.957031 C 8.273438 -37.925781 7.65625 -38.277344 7.039062 -38.277344 C 5.71875 -38.277344 4.488281 -36.605469 4.488281 -34.582031 Z M 4.488281 -34.582031 "/></g></g></g><g fill="#000000" fill-opacity="1"><g transform="translate(192.336671, 189.535351)"><g><path d="M 4.664062 -7.128906 L 4.839844 -7.128906 C 8.710938 -7.390625 12.054688 -19.886719 16.015625 -22.527344 C 16.015625 -19.886719 16.808594 -16.71875 19.535156 -16.71875 C 21.910156 -16.71875 25.078125 -21.296875 26.839844 -22.527344 C 26.839844 -17.421875 24.375 -9.0625 26.925781 -2.640625 C 27.894531 -0.0898438 29.480469 0.878906 31.152344 0.878906 C 34.054688 0.878906 37.398438 -1.9375 39.6875 -5.28125 C 40.304688 -6.160156 40.65625 -6.601562 41.183594 -7.304688 C 41.710938 -8.183594 41.976562 -8.710938 42.503906 -9.503906 C 43.117188 -10.472656 45.054688 -13.289062 45.054688 -14.34375 C 45.054688 -14.960938 44.527344 -15.488281 44.175781 -15.488281 C 42.238281 -15.488281 41.796875 -13.816406 41.007812 -12.582031 C 38.71875 -8.800781 34.582031 -2.375 32.03125 -2.375 C 30.535156 -2.375 29.566406 -4.3125 29.566406 -9.679688 C 29.566406 -14.609375 31.152344 -24.023438 29.566406 -25.871094 C 29.128906 -26.398438 28.597656 -26.574219 28.070312 -26.574219 C 27.542969 -26.574219 27.015625 -26.398438 26.488281 -26.136719 C 25.519531 -25.605469 24.992188 -24.902344 24.199219 -24.023438 C 22.617188 -22.617188 20.589844 -20.0625 19.269531 -19.886719 C 19.269531 -22.703125 18.65625 -26.136719 16.015625 -26.136719 C 13.902344 -26.136719 11.351562 -21.648438 10.382812 -19.976562 L 6.246094 -13.023438 C 6.070312 -12.847656 5.984375 -12.757812 5.808594 -12.582031 C 5.808594 -21.472656 10.03125 -25.429688 5.542969 -25.429688 C 2.375 -25.429688 -1.496094 -7.128906 4.664062 -7.128906 Z M 4.664062 -7.128906 "/></g></g></g><g fill="#000000" fill-opacity="1"><g transform="translate(233.430869, 189.535351)"><g><path d="M 2.726562 -76.207031 C 2.726562 -69.78125 3.257812 -61.511719 3.257812 -54.734375 C 3.257812 -37.046875 1.761719 -20.0625 1.761719 -2.113281 L 2.375 10.558594 C 2.375 17.160156 6.070312 41.183594 12.671875 41.183594 C 16.894531 41.183594 18.832031 35.992188 20.152344 31.941406 C 24.199219 19.976562 27.632812 6.421875 31.679688 -5.542969 L 35.464844 -18.039062 C 37.574219 -25.785156 40.917969 -35.640625 43.03125 -43.207031 C 44.085938 -47.078125 44.789062 -48.75 46.199219 -52.183594 C 46.640625 -53.328125 46.460938 -54.46875 44.789062 -54.46875 C 42.152344 -54.46875 37.222656 -35.109375 36.253906 -32.117188 C 35.023438 -28.246094 33.878906 -24.289062 32.648438 -20.328125 L 19.976562 20.945312 C 18.65625 25.078125 16.105469 35.640625 13.289062 37.574219 C 9.945312 36.519531 8.007812 23.671875 7.65625 20.765625 C 4.664062 -0.175781 7.832031 -28.335938 7.832031 -50.160156 C 7.832031 -54.03125 7.832031 -63.796875 7.390625 -66.964844 C 6.863281 -70.660156 7.390625 -77.171875 4.222656 -77.171875 C 3.519531 -77.171875 3.257812 -76.644531 2.726562 -76.207031 Z M 2.726562 -76.207031 "/></g></g></g><g fill="#000000" fill-opacity="1"><g transform="translate(272.061176, 189.535351)"><g><path d="M 7.304688 0.351562 C 11.441406 0.351562 14.785156 -3.519531 16.894531 -5.71875 C 18.304688 -7.128906 23.582031 -13.023438 23.582031 -14.695312 C 23.582031 -15.488281 23.320312 -15.75 22.96875 -15.75 C 21.296875 -15.75 16.632812 -9.503906 16.28125 -9.0625 C 14.960938 -7.390625 10.382812 -2.726562 7.566406 -2.726562 C 5.191406 -2.726562 4.222656 -7.917969 4.222656 -10.558594 C 4.222656 -19.535156 7.742188 -23.496094 3.695312 -23.496094 C 1.9375 -23.496094 1.054688 -19.535156 0.792969 -17.6875 C -0.175781 -13.199219 0 -7.128906 2.113281 -3.167969 C 3.078125 -1.496094 4.929688 0.351562 7.304688 0.351562 Z M 4.488281 -34.582031 C 4.488281 -32.648438 5.632812 -31.765625 6.863281 -31.765625 C 8.625 -31.765625 10.472656 -33.703125 8.800781 -36.957031 C 8.273438 -37.925781 7.65625 -38.277344 7.039062 -38.277344 C 5.71875 -38.277344 4.488281 -36.605469 4.488281 -34.582031 Z M 4.488281 -34.582031 "/></g></g></g><g fill="#000000" fill-opacity="1"><g transform="translate(292.124293, 189.535351)"><g><path d="M 4.046875 10.824219 C -0.527344 10.824219 4.664062 5.894531 7.742188 3.960938 C 8.976562 3.167969 14.078125 0.351562 15.222656 0 C 13.113281 3.960938 9.328125 10.824219 4.046875 10.824219 Z M 1.230469 -5.542969 C 1.230469 -3.078125 0.792969 0.617188 3.167969 0.617188 C 4.839844 0.617188 6.160156 -7.214844 10.558594 -12.582031 C 12.320312 -14.609375 13.726562 -15.488281 14.785156 -15.488281 C 17.421875 -15.488281 18.128906 -10.472656 16.984375 -5.457031 C 16.542969 -3.433594 16.457031 -3.785156 14.785156 -2.992188 C 10.472656 -0.878906 -0.527344 4.488281 -0.527344 9.589844 C -0.527344 12.320312 1.496094 13.464844 3.960938 13.464844 C 5.984375 13.464844 8.273438 12.757812 10.207031 11.527344 C 16.71875 7.566406 18.832031 -0.527344 19.535156 -1.761719 C 19.976562 -2.464844 26.136719 -5.632812 28.953125 -7.65625 C 30.359375 -8.886719 31.765625 -9.855469 33.085938 -11.265625 C 33.4375 -11.441406 37.664062 -15.136719 34.054688 -15.136719 C 33.4375 -15.136719 29.390625 -11.351562 27.808594 -10.207031 C 24.640625 -7.917969 23.933594 -7.65625 20.589844 -5.894531 C 20.589844 -8.535156 21.648438 -11.527344 19.625 -15.398438 C 18.480469 -17.421875 16.894531 -18.390625 15.136719 -18.390625 C 12.847656 -18.390625 10.382812 -16.808594 8.535156 -14.253906 C 7.742188 -13.375 7.039062 -12.40625 6.511719 -11.265625 L 4.574219 -8.097656 C 4.574219 -15.222656 7.039062 -34.144531 8.976562 -41.359375 C 9.0625 -42.152344 9.503906 -43.382812 9.503906 -43.648438 C 9.589844 -44.261719 9.0625 -45.320312 8.273438 -45.320312 C 7.566406 -45.320312 6.6875 -44.613281 5.808594 -42.238281 C 2.550781 -33.96875 1.230469 -14.34375 1.230469 -5.542969 Z M 1.230469 -5.542969 "/></g></g></g><g fill="#000000" fill-opacity="1"><g transform="translate(323.362931, 189.535351)"><g><path d="M 4.046875 -15.925781 C 4.664062 -18.128906 7.566406 -21.558594 9.945312 -22 C 9.679688 -19.183594 6.246094 -17.070312 4.046875 -15.925781 Z M 0.0898438 -13.816406 C 0.0898438 -11.351562 0 -9.152344 2.113281 -7.039062 C 3.609375 -5.542969 5.367188 -4.929688 7.214844 -4.929688 C 12.582031 -4.929688 18.65625 -10.296875 21.910156 -13.550781 C 22.703125 -14.519531 22.703125 -14.609375 22.4375 -15.925781 C 19.800781 -15.925781 21.207031 -15.574219 17.597656 -12.757812 C 16.984375 -12.320312 16.71875 -11.96875 16.015625 -11.441406 C 14.253906 -10.121094 10.558594 -7.566406 7.480469 -7.566406 C 6.421875 -7.566406 5.367188 -7.917969 4.574219 -8.710938 C 3.078125 -10.207031 3.257812 -11.617188 3.257812 -13.464844 C 5.984375 -13.640625 9.152344 -16.191406 10.558594 -17.777344 C 13.289062 -21.207031 13.289062 -24.726562 9.414062 -24.726562 C 5.191406 -24.726562 0.0898438 -18.214844 0.0898438 -13.816406 Z M 0.0898438 -13.816406 "/></g></g></g><path stroke-linecap="butt" transform="matrix(0.750237, -0.00136705, 0.00136662, 0.749999, 21.79747, 231.589218)" fill="none" stroke-linejoin="miter" d="M 0.00168031 1.500839 L 441.867023 1.498951 " stroke="#000000" stroke-width="3" stroke-opacity="1" stroke-miterlimit="4"/></svg>